IMDb : http://www.imdb.com/title/tt1024648

Language : English

Screens : 

 
http://www.piczend.com/image/1359685940_vlcsnap-2013-01-31-18h24m44s230.png 
http://www.piczend.com/image/1359685940_vlcsnap-2013-01-31-18h24m49s25.png 
http://www.piczend.com/image/1359685940_vlcsnap-2013-01-31-18h24m56s90.png 
http://www.piczend.com/image/1359685940_vlcsnap-2013-01-31-18h32m23s212.png 
http://www.piczend.com/image/1359685940_vlcsnap-2013-01-31-18h32m29s18.png 
http://www.piczend.com/image/1359685941_vlcsnap-2013-01-31-18h32m35s73.png 
http://www.piczend.com/image/1359685941_vlcsnap-2013-01-31-18h32m40s121.png

Info:
VIDEO (A) :
Format : MPEG-4
Format profile : Base Media / Version 2
Codec ID : mp42
File size : 309 MiB
Duration : 59mn 25s
Overall bit rate mode : Variable
Overall bit rate : 726 Kbps
Encoded date : UTC 2013-02-01 02:06:03
Tagged date : UTC 2013-02-01 02:11:19
Writing application : HandBrake 0.9.8 2012071700

Video
ID : 1
Format : AVC
Format/Info : Advanced Video Codec
Format profile : Main@L2.1
Format settings, CABAC : Yes
Format settings, ReFrames : 4 frames
Codec ID : avc1
Codec ID/Info : Advanced Video Coding
Duration : 59mn 25s
Bit rate mode : Variable
Bit rate : 561 Kbps
Width : 640 pixels
Height : 272 pixels
Display aspect ratio : 2.35:1
Frame rate mode : Variable
Frame rate : 23.976 fps
Minimum frame rate : 11.987 fps
Maximum frame rate : 23.981 fps
Color space : YUV
Chroma subsampling : 4:2:0
Bit depth : 8 bits
Scan type : Progressive
Bits/(Pixel*Frame) : 0.134
Stream size : 239 MiB (77%)
Writing library : x264 core 120
Encoding settings : cabac=1 / ref=1 / deblock=1:0:0 / analyse=0x1:0x111 / me=hex / subme=2 / psy=1 / psy_rd=1.00:0.00 / mixed_ref=0 / me_range=16 / chroma_me=1 / trellis=0 / 8x8dct=0 / cqm=0 / deadzone=21,11 / fast_pskip=1 / chroma_qp_offset=0 / threads=6 / sliced_threads=0 / nr=0 / decimate=1 / interlaced=0 / bluray_compat=0 / constrained_intra=0 / bframes=3 / b_pyramid=2 / b_adapt=1 / b_bias=0 / direct=1 / weightb=1 / open_gop=0 / weightp=1 / keyint=240 / keyint_min=24 / scenecut=40 / intra_refresh=0 / rc_lookahead=10 / rc=crf / mbtree=1 / crf=20.0 / qcomp=0.60 / qpmin=3 / qpmax=69 / qpstep=4 / ip_ratio=1.40 / aq=1:1.00
Encoded date : UTC 2013-02-01 02:06:03
Tagged date : UTC 2013-02-01 02:11:19
Color primaries : BT.601 NTSC
Transfer characteristics : BT.709
Matrix coefficients : BT.601

Audio
ID : 2
Format : AAC
Format/Info : Advanced Audio Codec
Format profile : LC
Codec ID : 40
Duration : 59mn 25s
Bit rate mode : Variable
Bit rate : 160 Kbps
Maximum bit rate : 236 Kbps
Channel(s) : 2 channels
Channel positions : Front: L R
Sampling rate : 48.0 KHz
Compression mode : Lossy
Delay relative to video : 83ms
Stream size : 68.0 MiB (22%)
Encoded date : UTC 2013-02-01 02:06:03
Tagged date : UTC 2013-02-01 02:11:19


VIDEO (B):
Format : MPEG-4
Format profile : Base Media / Version 2
Codec ID : mp42
File size : 326 MiB
Duration : 1h 0mn
Overall bit rate mode : Variable
Overall bit rate : 747 Kbps
Encoded date : UTC 2013-02-01 02:25:15
Tagged date : UTC 2013-02-01 02:30:24
Writing application : HandBrake 0.9.8 2012071700

Video
ID : 1
Format : AVC
Format/Info : Advanced Video Codec
Format profile : Main@L2.1
Format settings, CABAC : Yes
Format settings, ReFrames : 4 frames
Codec ID : avc1
Codec ID/Info : Advanced Video Coding
Duration : 1h 0mn
Bit rate mode : Variable
Bit rate : 582 Kbps
Width : 640 pixels
Height : 272 pixels
Display aspect ratio : 2.35:1
Frame rate mode : Variable
Frame rate : 23.976 fps
Minimum frame rate : 11.987 fps
Maximum frame rate : 23.981 fps
Color space : YUV
Chroma subsampling : 4:2:0
Bit depth : 8 bits
Scan type : Progressive
Bits/(Pixel*Frame) : 0.139
Stream size : 254 MiB (78%)
Writing library : x264 core 120
Encoding settings : cabac=1 / ref=1 / deblock=1:0:0 / analyse=0x1:0x111 / me=hex / subme=2 / psy=1 / psy_rd=1.00:0.00 / mixed_ref=0 / me_range=16 / chroma_me=1 / trellis=0 / 8x8dct=0 / cqm=0 / deadzone=21,11 / fast_pskip=1 / chroma_qp_offset=0 / threads=6 / sliced_threads=0 / nr=0 / decimate=1 / interlaced=0 / bluray_compat=0 / constrained_intra=0 / bframes=3 / b_pyramid=2 / b_adapt=1 / b_bias=0 / direct=1 / weightb=1 / open_gop=0 / weightp=1 / keyint=240 / keyint_min=24 / scenecut=40 / intra_refresh=0 / rc_lookahead=10 / rc=crf / mbtree=1 / crf=20.0 / qcomp=0.60 / qpmin=3 / qpmax=69 / qpstep=4 / ip_ratio=1.40 / aq=1:1.00
Encoded date : UTC 2013-02-01 02:25:15
Tagged date : UTC 2013-02-01 02:30:24
Color primaries : BT.601 NTSC
Transfer characteristics : BT.709
Matrix coefficients : BT.601

Audio
ID : 2
Format : AAC
Format/Info : Advanced Audio Codec
Format profile : LC
Codec ID : 40
Duration : 1h 0mn
Bit rate mode : Variable
Bit rate : 160 Kbps
Maximum bit rate : 202 Kbps
Channel(s) : 2 channels
Channel positions : Front: L R
Sampling rate : 48.0 KHz
Compression mode : Lossy
Delay relative to video : 83ms
Stream size : 69.7 MiB (21%)
Encoded date : UTC 2013-02-01 02:25:15
Tagged date : UTC 2013-02-01 02:30:24
